<svg width="109" height="39" viewBox="0 0 109 39" fill="none" xmlns="http://www.w3.org/2000/svg">
<path d="M44.1003 35.7239C43.7314 35.7239 43.4059 35.4201 43.4059 35.0294V13.8718C43.4059 9.40146 47.0515 5.75586 51.5217 5.75586H58.0969C62.5454 5.75586 66.1694 9.40146 66.1694 13.8501V19.3402C66.1694 23.8104 62.5237 27.4561 58.0535 27.4561H47.7242C47.3553 27.4561 47.0298 27.1523 47.0298 26.7617C47.0298 26.3711 47.3336 26.0673 47.7242 26.0673H58.0752C61.7859 26.0673 64.8023 23.0509 64.8023 19.3402V13.8718C64.8023 10.1827 61.7859 7.16636 58.0969 7.14466H51.5217C47.811 7.14466 44.7947 10.161 44.7947 13.8718V35.0512C44.7947 35.4201 44.4692 35.7239 44.1003 35.7239Z" fill="#98989C"/>
<path d="M73.2219 27.5647C72.853 27.5647 72.5275 27.2609 72.5275 26.8703V9.48841C72.5275 8.18641 71.4642 7.12311 70.1622 7.12311H67.3195C66.9506 7.12311 66.6251 6.81931 66.6251 6.42871C66.6251 6.03811 66.9289 5.73431 67.3195 5.73431H70.1622C72.2237 5.73431 73.8947 7.40521 73.8947 9.46671V26.8703C73.9164 27.2609 73.5908 27.5647 73.2219 27.5647Z" fill="#98989C"/>
<path d="M72.6143 4.01998L71.3123 2.71796C70.9868 2.39245 70.9868 1.87165 71.3123 1.54615L72.6143 0.244125C72.9398 -0.081375 73.4606 -0.081375 73.7861 0.244125L75.0881 1.54615C75.4136 1.87165 75.4136 2.39245 75.0881 2.71796L73.7861 4.01998C73.4606 4.32378 72.9398 4.32378 72.6143 4.01998Z" fill="#4BB8A9"/>
<path d="M81.4897 27.4778H78.6687C78.2998 27.4778 77.9743 27.174 77.9743 26.7834C77.9743 26.4145 78.2781 26.089 78.6687 26.089H81.4897C82.77 26.089 83.9852 25.5899 84.8749 24.6785L91.4935 18.1901C92.036 17.6476 92.7521 17.3438 93.5331 17.3438C94.2931 17.3438 95.0311 17.6476 95.5731 18.1901L102.17 24.6568C103.081 25.5682 104.275 26.0673 105.555 26.0673H107.855C108.224 26.0673 108.55 26.3711 108.55 26.7617C108.55 27.1306 108.246 27.4561 107.855 27.4561H105.555C103.906 27.4561 102.365 26.8051 101.193 25.655L94.5971 19.1883C94.3141 18.9062 93.9241 18.7543 93.5331 18.7543C93.1211 18.7543 92.7521 18.9062 92.47 19.1883L85.8515 25.655C84.6796 26.8268 83.1389 27.4778 81.4897 27.4778Z" fill="#98989C"/>
<path d="M81.4897 5.75586H78.6687C78.2998 5.75586 77.9743 6.05966 77.9743 6.45026C77.9743 6.84086 78.2781 7.14466 78.6687 7.14466H81.4897C82.77 7.14466 83.9852 7.64376 84.8749 8.55516L91.4935 15.0219C92.036 15.5644 92.7521 15.8682 93.5331 15.8682C94.2931 15.8682 95.0311 15.5644 95.5731 15.0219L102.17 8.55516C103.081 7.64376 104.275 7.14466 105.555 7.14466H107.855C108.224 7.14466 108.55 6.84086 108.55 6.45026C108.55 6.05966 108.246 5.75586 107.855 5.75586H105.555C103.906 5.75586 102.365 6.40686 101.193 7.55696L94.5971 14.0237C94.3141 14.3058 93.9241 14.4577 93.5331 14.4577C93.1211 14.4577 92.7521 14.3058 92.47 14.0237L85.8515 7.57866C84.6796 6.40686 83.1389 5.75586 81.4897 5.75586Z" fill="#98989C"/>
<path d="M7.96936 29.8214C9.37986 29.8214 10.7254 29.2789 11.7236 28.259L17.1486 22.8339C17.5392 22.4433 18.1902 22.4433 18.5808 22.8339L24.0276 28.2807C25.0258 29.2789 26.3712 29.8431 27.7817 29.8431H28.845L21.9661 36.7221C19.8178 38.8704 16.3457 38.8704 14.1974 36.7221L7.29666 29.8214H7.96936Z" fill="#4BB8A9"/>
<path d="M27.7797 10.6167C26.3692 10.6167 25.0238 11.1592 24.0256 12.1791L18.5789 17.6259C18.1882 18.0165 17.5372 18.0165 17.1466 17.6259L11.7216 12.2008C10.7234 11.2026 9.37796 10.6384 7.96746 10.6384H7.31636L14.2171 3.7377C16.3654 1.58938 19.8375 1.58938 21.9858 3.7377L28.8647 10.6167H27.7797Z" fill="#4BB8A9"/>
<path d="M1.61124 16.3456L5.71256 12.2443H7.96936C8.94586 12.2443 9.90076 12.6349 10.5952 13.3293L16.0202 18.7543C16.5193 19.2534 17.192 19.5138 17.8647 19.5138C18.5374 19.5138 19.1884 19.2534 19.7092 18.7543L25.156 13.3076C25.8504 12.6132 26.8052 12.2226 27.7817 12.2226H30.4508L34.5739 16.3456C36.7222 18.4939 36.7222 21.9659 34.5739 24.1143L30.4508 28.2373H27.7817C26.8052 28.2373 25.8504 27.8467 25.156 27.1523L19.7092 21.7055C18.7327 20.729 17.0184 20.729 16.0202 21.7055L10.5952 27.1306C9.90076 27.825 8.94586 28.2156 7.96936 28.2156H5.71256L1.61124 24.1143C-0.53708 21.9659 -0.53708 18.4939 1.61124 16.3456Z" fill="#4BB8A9"/>
</svg>
